<svg width="25" height="24" viewBox="0 0 25 24" fill="none" xmlns="http://www.w3.org/2000/svg">
<path d="M12.501 16.803C12.1425 16.8032 11.7875 16.7326 11.4563 16.5953C11.1251 16.458 10.8243 16.2567 10.571 16.003L4.05099 9.48004C3.92122 9.33739 3.85139 9.15024 3.85599 8.95746C3.86059 8.76467 3.93927 8.58106 4.07569 8.44477C4.21212 8.30847 4.3958 8.22997 4.58859 8.22555C4.78138 8.22113 4.96846 8.29114 5.11099 8.42104L11.633 14.94C11.8638 15.1706 12.1767 15.3001 12.503 15.3001C12.8293 15.3001 13.1422 15.1706 13.373 14.94L19.893 8.42004C20.0352 8.28756 20.2232 8.21544 20.4175 8.21887C20.6118 8.2223 20.7972 8.30101 20.9346 8.43842C21.072 8.57583 21.1507 8.76122 21.1542 8.95552C21.1576 9.14982 21.0855 9.33787 20.953 9.48004L14.433 16.003C14.1795 16.257 13.8783 16.4584 13.5467 16.5957C13.2152 16.7329 12.8598 16.8034 12.501 16.803Z" fill="white"/>
</svg>
