<svg width="39" height="39" viewBox="0 0 39 39" fill="none" xmlns="http://www.w3.org/2000/svg">
<path opacity="0.4" d="M32.6754 11.9209V24.6262H10.2012C9.00131 24.6283 7.85117 25.1059 7.00272 25.9543C6.15427 26.8027 5.67669 27.9527 5.67459 29.1525L5.67459 11.9209C5.67459 5.56815 7.26287 3.97998 13.616 3.97998H24.734C31.0871 3.97998 32.6754 5.56815 32.6754 11.9209Z" fill="#A8AD00"/>
<path d="M32.6754 24.6263V30.185C32.6754 31.6592 32.0897 33.073 31.0472 34.1155C30.0047 35.1579 28.5907 35.7436 27.1164 35.7436H11.2336C9.75924 35.7436 8.34529 35.1579 7.30278 34.1155C6.26027 33.073 5.67459 31.6592 5.67459 30.185V29.1526C5.67669 27.9528 6.15427 26.8028 7.00272 25.9544C7.85117 25.106 9.00131 24.6284 10.2012 24.6263H32.6754Z" fill="#A8AD00"/>
<path d="M25.5281 13.1121H12.8219C12.5066 13.11 12.2048 12.9839 11.9818 12.7609C11.7589 12.538 11.6327 12.2363 11.6306 11.921C11.6327 11.6057 11.7589 11.304 11.9818 11.081C12.2048 10.8581 12.5066 10.7319 12.8219 10.7299H25.5281C25.8434 10.7319 26.1452 10.8581 26.3681 11.081C26.5911 11.304 26.7172 11.6057 26.7193 11.921C26.7172 12.2363 26.5911 12.538 26.3681 12.7609C26.1452 12.9839 25.8434 13.11 25.5281 13.1121Z" fill="#A8AD00"/>
<path d="M20.7633 18.6707H12.8219C12.5066 18.6686 12.2048 18.5425 11.9818 18.3195C11.7589 18.0966 11.6327 17.7948 11.6306 17.4796C11.6327 17.1643 11.7589 16.8626 11.9818 16.6396C12.2048 16.4167 12.5066 16.2905 12.8219 16.2885H20.7633C21.0786 16.2905 21.3803 16.4167 21.6033 16.6396C21.8262 16.8626 21.9524 17.1643 21.9545 17.4796C21.9524 17.7948 21.8262 18.0966 21.6033 18.3195C21.3803 18.5425 21.0786 18.6686 20.7633 18.6707Z" fill="#A8AD00"/>
</svg>
