<svg width="39" height="39" viewBox="0 0 39 39" fill="none" xmlns="http://www.w3.org/2000/svg">
<path d="M25.2552 35.7435H13.0572C6.4023 35.7435 5.08403 31.7255 7.24091 26.8339L9.53121 21.6405C12.7935 21.5904 16.0429 22.0622 19.1562 23.0381C20.7137 23.4537 22.3403 23.5426 23.9338 23.2993C25.5273 23.0561 27.0533 22.4859 28.4159 21.6247L28.7177 21.4341L31.0842 26.8498C33.2125 31.7413 31.8148 35.7435 25.2552 35.7435Z" fill="#A8AD00"/>
<path opacity="0.4" d="M28.7177 21.4341L28.4159 21.6247C27.0534 22.486 25.5274 23.0562 23.9339 23.2994C22.3404 23.5427 20.7138 23.4537 19.1563 23.0382C16.043 22.0623 12.7936 21.5904 9.53128 21.6406L13.9785 11.508H13.502C12.5036 11.508 11.5462 11.1115 10.8403 10.4056C10.1343 9.69972 9.73776 8.74234 9.73776 7.74408C9.73776 6.74581 10.1343 5.78843 10.8403 5.08254C11.5462 4.37666 12.5036 3.9801 13.502 3.9801H24.7947C25.2908 3.98002 25.7821 4.07821 26.24 4.26903C26.698 4.45984 27.1137 4.73949 27.463 5.09182C27.9289 5.54709 28.2668 6.11706 28.4424 6.74437C28.6181 7.37168 28.6254 8.03419 28.4636 8.66522C28.2313 9.49958 27.727 10.2325 27.0306 10.7475C26.3343 11.2625 25.4858 11.5302 24.62 11.508H24.3658L28.7177 21.4341Z" fill="#A8AD00"/>
</svg>
