<svg width="24" height="24" viewBox="0 0 24 24" fill="none" xmlns="http://www.w3.org/2000/svg">
<path d="M11.5 21.75C9.47275 21.75 7.49101 21.1489 5.80541 20.0226C4.11981 18.8963 2.80604 17.2955 2.03024 15.4225C1.25444 13.5496 1.05146 11.4886 1.44696 9.50033C1.84245 7.51202 2.81867 5.68565 4.25216 4.25216C5.68565 2.81867 7.51202 1.84245 9.50033 1.44696C11.4886 1.05146 13.5496 1.25444 15.4225 2.03024C17.2955 2.80604 18.8963 4.11981 20.0226 5.80541C21.1489 7.49101 21.75 9.47275 21.75 11.5C21.7463 14.2173 20.6652 16.8223 18.7438 18.7438C16.8223 20.6652 14.2173 21.7463 11.5 21.75ZM11.5 2.75C9.76942 2.75 8.0777 3.26318 6.63877 4.22465C5.19984 5.18611 4.07833 6.55267 3.41606 8.15152C2.75379 9.75038 2.58051 11.5097 2.91813 13.207C3.25575 14.9044 4.08911 16.4635 5.31282 17.6872C6.53653 18.9109 8.09563 19.7443 9.79296 20.0819C11.4903 20.4195 13.2496 20.2462 14.8485 19.584C16.4473 18.9217 17.8139 17.8002 18.7754 16.3612C19.7368 14.9223 20.25 13.2306 20.25 11.5C20.2474 9.18017 19.3246 6.95611 17.6843 5.31574C16.0439 3.67537 13.8198 2.75265 11.5 2.75Z" fill="#B6B6B6"/>
<path d="M22.001 22.7529C21.9024 22.7533 21.8048 22.734 21.7138 22.6963C21.6228 22.6585 21.5403 22.603 21.471 22.5329L19.471 20.5329C19.3301 20.3924 19.2509 20.2016 19.2507 20.0027C19.2505 19.8037 19.3294 19.6128 19.47 19.4719C19.6105 19.3311 19.8013 19.2519 20.0003 19.2517C20.1992 19.2515 20.3901 19.3304 20.531 19.4709L22.531 21.4709C22.6705 21.6121 22.7487 21.8025 22.7487 22.0009C22.7487 22.1994 22.6705 22.3898 22.531 22.5309C22.4618 22.6013 22.3793 22.6572 22.2883 22.6953C22.1973 22.7335 22.0996 22.753 22.001 22.7529Z" fill="#B6B6B6"/>
</svg>
