<svg width="26" height="26" viewBox="0 0 26 26" fill="none" xmlns="http://www.w3.org/2000/svg">
<path d="M18.0882 0.75769H7.58048C3.01626 0.75769 0.295288 3.47848 0.295288 8.04239V18.5369C0.295288 23.1133 3.01626 25.8341 7.58048 25.8341H18.0757C22.6399 25.8341 25.3609 23.1133 25.3609 18.5494V8.04239C25.3734 3.47848 22.6524 0.75769 18.0882 0.75769ZM21.0224 13.9604L15.6431 19.3393C15.556 19.4268 15.4524 19.4963 15.3383 19.5436C15.2243 19.591 15.102 19.6154 14.9785 19.6154C14.855 19.6154 14.7328 19.591 14.6187 19.5436C14.5047 19.4963 14.4011 19.4268 14.314 19.3393C14.1391 19.1624 14.041 18.9236 14.041 18.6748C14.041 18.426 14.1391 18.1872 14.314 18.0103L18.0882 14.2363H5.31091C5.0615 14.2363 4.82229 14.1372 4.64593 13.9608C4.46956 13.7845 4.37048 13.5453 4.37048 13.2959C4.37048 13.0465 4.46956 12.8073 4.64593 12.631C4.82229 12.4546 5.0615 12.3555 5.31091 12.3555H18.0882L14.314 8.58154C14.2216 8.49545 14.1475 8.39163 14.0961 8.27628C14.0447 8.16093 14.017 8.03641 14.0148 7.91014C14.0126 7.78388 14.0358 7.65846 14.0831 7.54137C14.1304 7.42428 14.2008 7.31791 14.2901 7.22862C14.3794 7.13932 14.4858 7.06893 14.6029 7.02163C14.72 6.97433 14.8454 6.95111 14.9717 6.95334C15.0979 6.95556 15.2225 6.9832 15.3378 7.0346C15.4532 7.08599 15.557 7.1601 15.6431 7.25249L21.0224 12.6314C21.1099 12.7185 21.1793 12.8221 21.2267 12.9361C21.274 13.0502 21.2984 13.1724 21.2984 13.2959C21.2984 13.4194 21.274 13.5417 21.2267 13.6557C21.1793 13.7697 21.1099 13.8733 21.0224 13.9604Z" fill="#00665E"/>
</svg>
