<svg width="33" height="33" viewBox="0 0 33 33" fill="none" xmlns="http://www.w3.org/2000/svg">
<path d="M20.0719 30.9362H12.0469C4.78427 30.9362 1.68127 27.8334 1.68127 20.5713V12.5468C1.68127 5.28468 4.78427 2.18188 12.0469 2.18188H20.0719C27.3345 2.18188 30.4375 5.28468 30.4375 12.5468V20.5713C30.4375 27.8334 27.3345 30.9362 20.0719 30.9362ZM12.0469 4.188C5.88102 4.188 3.68752 6.38135 3.68752 12.5468V20.5713C3.68752 26.7367 5.88102 28.9301 12.0469 28.9301H20.0719C26.2378 28.9301 28.4313 26.7367 28.4313 20.5713V12.5468C28.4313 6.38135 26.2378 4.188 20.0719 4.188H12.0469Z" fill="#292D32"/>
<path d="M9.2248 30.2407C8.9593 30.239 8.70517 30.1327 8.51742 29.945C8.32968 29.7573 8.22343 29.5032 8.22168 29.2377V3.88038C8.22168 3.61435 8.32737 3.35922 8.51549 3.17111C8.70361 2.983 8.95876 2.87732 9.2248 2.87732C9.49085 2.87732 9.746 2.983 9.93412 3.17111C10.1222 3.35922 10.2279 3.61435 10.2279 3.88038V29.2377C10.2281 29.3694 10.2023 29.5 10.1519 29.6217C10.1016 29.7435 10.0277 29.8542 9.93451 29.9473C9.84133 30.0405 9.73068 30.1144 9.60889 30.1647C9.48711 30.2151 9.35659 30.2409 9.2248 30.2407Z" fill="#292D32"/>
<path d="M22.5998 30.2407C22.3343 30.239 22.0802 30.1327 21.8924 29.945C21.7047 29.7573 21.5984 29.5032 21.5967 29.2377V3.88038C21.5984 3.61489 21.7047 3.36078 21.8924 3.17304C22.0802 2.98531 22.3343 2.87907 22.5998 2.87732C22.8653 2.87907 23.1194 2.98531 23.3072 3.17304C23.4949 3.36078 23.6012 3.61489 23.6029 3.88038V29.2377C23.6031 29.3694 23.5773 29.5 23.5269 29.6217C23.4766 29.7435 23.4027 29.8542 23.3095 29.9473C23.2163 30.0405 23.1057 30.1144 22.9839 30.1647C22.8621 30.2151 22.7316 30.2409 22.5998 30.2407Z" fill="#292D32"/>
<path d="M9.22481 10.835H3.40669C3.14119 10.8332 2.88705 10.727 2.69931 10.5392C2.51157 10.3515 2.40532 10.0974 2.40356 9.83191C2.40532 9.56643 2.51157 9.31231 2.69931 9.12458C2.88705 8.93685 3.14119 8.83061 3.40669 8.82886H9.22481C9.49032 8.83061 9.74445 8.93685 9.93219 9.12458C10.1199 9.31231 10.2262 9.56643 10.2279 9.83191C10.2262 10.0974 10.1199 10.3515 9.93219 10.5392C9.74445 10.727 9.49032 10.8332 9.22481 10.835Z" fill="#292D32"/>
<path d="M9.22481 17.5621H2.72456C2.45906 17.5604 2.20492 17.4542 2.01718 17.2664C1.82944 17.0787 1.72319 16.8246 1.72144 16.5591C1.72319 16.2936 1.82944 16.0395 2.01718 15.8518C2.20492 15.664 2.45906 15.5578 2.72456 15.556H9.22481C9.49031 15.5578 9.74445 15.664 9.93219 15.8518C10.1199 16.0395 10.2262 16.2936 10.2279 16.5591C10.2262 16.8246 10.1199 17.0787 9.93219 17.2664C9.74445 17.4542 9.49031 17.5604 9.22481 17.5621Z" fill="#292D32"/>
<path d="M9.2248 24.209H3.32643C3.06092 24.2072 2.80679 24.101 2.61905 23.9133C2.4313 23.7255 2.32506 23.4714 2.3233 23.2059C2.32506 22.9405 2.4313 22.6863 2.61905 22.4986C2.80679 22.3109 3.06092 22.2046 3.32643 22.2029H9.2248C9.49031 22.2046 9.74444 22.3109 9.93218 22.4986C10.1199 22.6863 10.2262 22.9405 10.2279 23.2059C10.2262 23.4714 10.1199 23.7255 9.93218 23.9133C9.74444 24.101 9.49031 24.2072 9.2248 24.209Z" fill="#292D32"/>
<path d="M29.2873 10.835H23.4692C23.2037 10.8332 22.9496 10.727 22.7618 10.5392C22.5741 10.3515 22.4678 10.0974 22.4661 9.83191C22.4678 9.56643 22.5741 9.31231 22.7618 9.12458C22.9496 8.93685 23.2037 8.83061 23.4692 8.82886H29.2873C29.5528 8.83061 29.807 8.93685 29.9947 9.12458C30.1824 9.31231 30.2887 9.56643 30.2904 9.83191C30.2887 10.0974 30.1824 10.3515 29.9947 10.5392C29.807 10.727 29.5528 10.8332 29.2873 10.835Z" fill="#292D32"/>
<path d="M29.2873 17.5621H22.7871C22.5216 17.5604 22.2674 17.4542 22.0797 17.2664C21.8919 17.0787 21.7857 16.8246 21.7839 16.5591C21.7857 16.2936 21.8919 16.0395 22.0797 15.8518C22.2674 15.664 22.5216 15.5578 22.7871 15.556H29.2873C29.5528 15.5578 29.8069 15.664 29.9947 15.8518C30.1824 16.0395 30.2887 16.2936 30.2904 16.5591C30.2887 16.8246 30.1824 17.0787 29.9947 17.2664C29.8069 17.4542 29.5528 17.5604 29.2873 17.5621Z" fill="#292D32"/>
<path d="M22.7068 17.5621H7.99427C7.72877 17.5604 7.47464 17.4542 7.2869 17.2664C7.09915 17.0787 6.9929 16.8246 6.99115 16.5591C6.9929 16.2936 7.09915 16.0395 7.2869 15.8518C7.47464 15.664 7.72877 15.5578 7.99427 15.556H22.7068C22.9728 15.556 23.228 15.6617 23.4161 15.8498C23.6042 16.0379 23.7099 16.2931 23.7099 16.5591C23.7099 16.8251 23.6042 17.0802 23.4161 17.2684C23.228 17.4565 22.9728 17.5621 22.7068 17.5621Z" fill="#292D32"/>
<path d="M29.2873 24.209H23.3889C23.1234 24.2072 22.8693 24.101 22.6815 23.9133C22.4938 23.7255 22.3876 23.4714 22.3858 23.2059C22.3876 22.9405 22.4938 22.6863 22.6815 22.4986C22.8693 22.3109 23.1234 22.2046 23.3889 22.2029H29.2873C29.5528 22.2046 29.8069 22.3109 29.9947 22.4986C30.1824 22.6863 30.2887 22.9405 30.2904 23.2059C30.2887 23.4714 30.1824 23.7255 29.9947 23.9133C29.8069 24.101 29.5528 24.2072 29.2873 24.209Z" fill="#292D32"/>
</svg>
